<mxfile host="65bd71144e">
    <diagram name="微服务架构设计" id="N2Myn5PMIJ71eVjoM_Ix">
        <mxGraphModel dx="1378" dy="1780" grid="1" gridSize="10" guides="1" tooltips="1" connect="1" arrows="1" fold="1" page="1" pageScale="1" pageWidth="827" pageHeight="1169" background="none" math="1" shadow="0">
            <root>
                <mxCell id="0"/>
                <mxCell id="1" parent="0"/>
                <mxCell id="m5sTgkwVKxVvh67zWAer-371" style="edgeStyle=orthogonalEdgeStyle;rounded=0;orthogonalLoop=1;jettySize=auto;html=1;exitX=0.5;exitY=1;exitDx=0;exitDy=0;entryX=0.528;entryY=0.073;entryDx=0;entryDy=0;flowAnimation=1;entryPerimeter=0;" parent="1" source="m5sTgkwVKxVvh67zWAer-361" target="m5sTgkwVKxVvh67zWAer-364" edge="1">
                    <mxGeometry relative="1" as="geometry"/>
                </mxCell>
                <mxCell id="m5sTgkwVKxVvh67zWAer-361" value="Web应用&#10;(React/Vue)" style="rounded=1;whiteSpace=wrap;html=1;fillColor=#805ad5;strokeColor=#553c9a;fontColor=#ffffff;fontSize=12;fontStyle=1;" parent="1" vertex="1">
                    <mxGeometry x="1320" y="555" width="570" height="60" as="geometry"/>
                </mxCell>
                <mxCell id="2" style="edgeStyle=orthogonalEdgeStyle;shape=connector;rounded=0;html=1;exitX=0.5;exitY=1;exitDx=0;exitDy=0;entryX=0.528;entryY=0.007;entryDx=0;entryDy=0;entryPerimeter=0;labelBackgroundColor=default;strokeColor=default;fontFamily=Helvetica;fontSize=11;fontColor=default;startArrow=none;startFill=0;endArrow=doubleBlock;endFill=1;flowAnimation=1;" parent="1" source="m5sTgkwVKxVvh67zWAer-362" target="m5sTgkwVKxVvh67zWAer-364" edge="1">
                    <mxGeometry relative="1" as="geometry"/>
                </mxCell>
                <mxCell id="m5sTgkwVKxVvh67zWAer-362" value="移动应用&#10;(Android/iOS)" style="rounded=1;whiteSpace=wrap;html=1;fillColor=#805ad5;strokeColor=#553c9a;fontColor=#ffffff;fontSize=12;fontStyle=1;" parent="1" vertex="1">
                    <mxGeometry x="555" y="555" width="630" height="60" as="geometry"/>
                </mxCell>
                <mxCell id="m5sTgkwVKxVvh67zWAer-382" style="edgeStyle=orthogonalEdgeStyle;rounded=0;orthogonalLoop=1;jettySize=auto;html=1;exitX=0.5;exitY=1;exitDx=0;exitDy=0;convertToSvg=0;flowAnimation=1;endArrow=doubleBlock;endFill=0;" parent="1" source="m5sTgkwVKxVvh67zWAer-364" target="m5sTgkwVKxVvh67zWAer-372" edge="1">
                    <mxGeometry relative="1" as="geometry"/>
                </mxCell>
                <mxCell id="m5sTgkwVKxVvh67zWAer-383" style="edgeStyle=orthogonalEdgeStyle;rounded=0;orthogonalLoop=1;jettySize=auto;html=1;exitX=0.5;exitY=1;exitDx=0;exitDy=0;entryX=0.5;entryY=0;entryDx=0;entryDy=0;exitPerimeter=0;convertToSvg=0;flowAnimation=1;endArrow=doubleBlock;endFill=0;" parent="1" source="m5sTgkwVKxVvh67zWAer-364" target="m5sTgkwVKxVvh67zWAer-373" edge="1">
                    <mxGeometry relative="1" as="geometry"/>
                </mxCell>
                <mxCell id="3" style="edgeStyle=orthogonalEdgeStyle;shape=connector;rounded=0;html=1;exitX=0.5;exitY=1;exitDx=0;exitDy=0;entryX=0.5;entryY=0;entryDx=0;entryDy=0;labelBackgroundColor=default;strokeColor=default;fontFamily=Helvetica;fontSize=11;fontColor=default;startArrow=none;startFill=0;endArrow=doubleBlock;endFill=1;flowAnimation=1;" parent="1" source="m5sTgkwVKxVvh67zWAer-364" target="m5sTgkwVKxVvh67zWAer-381" edge="1">
                    <mxGeometry relative="1" as="geometry"/>
                </mxCell>
                <mxCell id="4" style="edgeStyle=orthogonalEdgeStyle;shape=connector;rounded=0;html=1;exitX=0.5;exitY=1;exitDx=0;exitDy=0;labelBackgroundColor=default;strokeColor=default;fontFamily=Helvetica;fontSize=11;fontColor=default;startArrow=none;startFill=0;endArrow=doubleBlock;endFill=1;flowAnimation=1;" parent="1" source="m5sTgkwVKxVvh67zWAer-364" target="m5sTgkwVKxVvh67zWAer-375" edge="1">
                    <mxGeometry relative="1" as="geometry"/>
                </mxCell>
                <mxCell id="5" style="edgeStyle=orthogonalEdgeStyle;shape=connector;rounded=0;html=1;exitX=0.5;exitY=1;exitDx=0;exitDy=0;labelBackgroundColor=default;strokeColor=default;fontFamily=Helvetica;fontSize=11;fontColor=default;startArrow=none;startFill=0;endArrow=doubleBlock;endFill=1;flowAnimation=1;" parent="1" source="m5sTgkwVKxVvh67zWAer-364" target="m5sTgkwVKxVvh67zWAer-376" edge="1">
                    <mxGeometry relative="1" as="geometry"/>
                </mxCell>
                <mxCell id="m5sTgkwVKxVvh67zWAer-364" value="API网关&#10;(Spring Cloud Gateway)" style="rounded=1;whiteSpace=wrap;html=1;fillColor=#dd6b20;strokeColor=#c05621;fontColor=#ffffff;fontSize=12;fontStyle=1;" parent="1" vertex="1">
                    <mxGeometry x="555" y="680" width="1340" height="60" as="geometry"/>
                </mxCell>
                <mxCell id="m5sTgkwVKxVvh67zWAer-372" value="用户服务&#10;(User Service)&#10;Spring Boot" style="rounded=1;whiteSpace=wrap;html=1;fillColor=#38a169;strokeColor=#2f855a;fontColor=#ffffff;fontSize=11;fontStyle=1;" parent="1" vertex="1">
                    <mxGeometry x="560" y="1000" width="140" height="80" as="geometry"/>
                </mxCell>
                <mxCell id="m5sTgkwVKxVvh67zWAer-373" value="订单服务&#10;(Order Service)&#10;Spring Boot" style="rounded=1;whiteSpace=wrap;html=1;fillColor=#38a169;strokeColor=#2f855a;fontColor=#ffffff;fontSize=11;fontStyle=1;" parent="1" vertex="1">
                    <mxGeometry x="800" y="1000" width="140" height="80" as="geometry"/>
                </mxCell>
                <mxCell id="m5sTgkwVKxVvh67zWAer-374" value="商品服务&#10;(Product Service)&#10;Spring Boot" style="rounded=1;whiteSpace=wrap;html=1;fillColor=#38a169;strokeColor=#2f855a;fontColor=#ffffff;fontSize=11;fontStyle=1;" parent="1" vertex="1">
                    <mxGeometry x="1280" y="1000" width="140" height="80" as="geometry"/>
                </mxCell>
                <mxCell id="m5sTgkwVKxVvh67zWAer-375" value="通知服务&#10;(Notification Service)&#10;Spring Boot" style="rounded=1;whiteSpace=wrap;html=1;fillColor=#38a169;strokeColor=#2f855a;fontColor=#ffffff;fontSize=11;fontStyle=1;" parent="1" vertex="1">
                    <mxGeometry x="1520" y="1000" width="140" height="80" as="geometry"/>
                </mxCell>
                <mxCell id="m5sTgkwVKxVvh67zWAer-376" value="认证服务&#10;(Auth Service)&#10;Spring Boot" style="rounded=1;whiteSpace=wrap;html=1;fillColor=#38a169;strokeColor=#2f855a;fontColor=#ffffff;fontSize=11;fontStyle=1;" parent="1" vertex="1">
                    <mxGeometry x="1760" y="1000" width="140" height="80" as="geometry"/>
                </mxCell>
                <mxCell id="m5sTgkwVKxVvh67zWAer-377" value="REST API" style="endArrow=classic;html=1;rounded=0;exitX=1;exitY=0.5;exitDx=0;exitDy=0;entryX=0;entryY=0.5;entryDx=0;entryDy=0;fontSize=10;fontColor=light-dark(#FFFFFF,#FFFFFF);strokeColor=#38a169;strokeWidth=2;flowAnimation=1;" parent="1" source="m5sTgkwVKxVvh67zWAer-372" target="m5sTgkwVKxVvh67zWAer-373" edge="1">
                    <mxGeometry width="50" height="50" relative="1" as="geometry">
                        <mxPoint x="800" y="1030" as="sourcePoint"/>
                        <mxPoint x="800" y="1030" as="targetPoint"/>
                    </mxGeometry>
                </mxCell>
                <mxCell id="m5sTgkwVKxVvh67zWAer-378" value="REST API" style="endArrow=classic;html=1;rounded=0;exitX=1;exitY=0.5;exitDx=0;exitDy=0;entryX=0;entryY=0.5;entryDx=0;entryDy=0;fontSize=10;fontColor=light-dark(#FFFFFF,#FFFFFF);strokeColor=#38a169;strokeWidth=2;startArrow=none;flowAnimation=1;" parent="1" source="m5sTgkwVKxVvh67zWAer-381" target="m5sTgkwVKxVvh67zWAer-374" edge="1">
                    <mxGeometry width="50" height="50" relative="1" as="geometry">
                        <mxPoint x="960" y="1030" as="sourcePoint"/>
                        <mxPoint x="960" y="1030" as="targetPoint"/>
                    </mxGeometry>
                </mxCell>
                <mxCell id="m5sTgkwVKxVvh67zWAer-380" value="" style="endArrow=none;html=1;rounded=0;exitX=1;exitY=0.5;exitDx=0;exitDy=0;entryX=0;entryY=0.5;entryDx=0;entryDy=0;fontSize=10;fontColor=light-dark(#FFFFFF,#FFFFFF);strokeColor=#38a169;strokeWidth=2;flowAnimation=1;align=center;labelBorderColor=none;" parent="1" source="m5sTgkwVKxVvh67zWAer-373" target="m5sTgkwVKxVvh67zWAer-381" edge="1">
                    <mxGeometry width="50" height="50" relative="1" as="geometry">
                        <mxPoint x="940" y="1030" as="sourcePoint"/>
                        <mxPoint x="1160" y="1030" as="targetPoint"/>
                        <Array as="points"/>
                    </mxGeometry>
                </mxCell>
                <mxCell id="9" value="&lt;span style=&quot;color: rgb(255, 255, 255); font-size: 10px;&quot;&gt;消息队列&lt;/span&gt;" style="edgeLabel;html=1;align=center;verticalAlign=middle;resizable=0;points=[];" vertex="1" connectable="0" parent="m5sTgkwVKxVvh67zWAer-380">
                    <mxGeometry x="-0.234" y="-2" relative="1" as="geometry">
                        <mxPoint y="-2" as="offset"/>
                    </mxGeometry>
                </mxCell>
                <mxCell id="m5sTgkwVKxVvh67zWAer-381" value="支付服务&#10;(Payment Service)&#10;Spring Boot" style="rounded=1;whiteSpace=wrap;html=1;fillColor=#38a169;strokeColor=#2f855a;fontColor=#ffffff;fontSize=11;fontStyle=1;" parent="1" vertex="1">
                    <mxGeometry x="1046" y="1000" width="140" height="80" as="geometry"/>
                </mxCell>
                <mxCell id="m5sTgkwVKxVvh67zWAer-384" style="edgeStyle=orthogonalEdgeStyle;rounded=0;orthogonalLoop=1;jettySize=auto;html=1;exitX=0.5;exitY=1;exitDx=0;exitDy=0;entryX=0.542;entryY=0.004;entryDx=0;entryDy=0;entryPerimeter=0;convertToSvg=0;flowAnimation=1;startArrow=none;startFill=0;endArrow=doubleBlock;endFill=1;" parent="1" source="m5sTgkwVKxVvh67zWAer-364" target="m5sTgkwVKxVvh67zWAer-374" edge="1">
                    <mxGeometry relative="1" as="geometry"/>
                </mxCell>
                <mxCell id="m5sTgkwVKxVvh67zWAer-385" value="配置服务&#10;(Config Service)&#10;Spring Boot" style="rounded=1;whiteSpace=wrap;html=1;fillColor=#805ad5;strokeColor=#553c9a;fontColor=#ffffff;fontSize=11;fontStyle=1;" parent="1" vertex="1">
                    <mxGeometry x="570" y="1190" width="140" height="60" as="geometry"/>
                </mxCell>
                <mxCell id="m5sTgkwVKxVvh67zWAer-386" value="服务发现&#10;(Discovery Service)&#10;Eureka" style="rounded=1;whiteSpace=wrap;html=1;fillColor=#805ad5;strokeColor=#553c9a;fontColor=#ffffff;fontSize=11;fontStyle=1;" parent="1" vertex="1">
                    <mxGeometry x="808" y="1190" width="140" height="60" as="geometry"/>
                </mxCell>
                <mxCell id="m5sTgkwVKxVvh67zWAer-387" value="监控服务&#10;(Monitor Service)&#10;Spring Boot Admin" style="rounded=1;whiteSpace=wrap;html=1;fillColor=#805ad5;strokeColor=#553c9a;fontColor=#ffffff;fontSize=11;fontStyle=1;" parent="1" vertex="1">
                    <mxGeometry x="1046" y="1190" width="140" height="60" as="geometry"/>
                </mxCell>
                <mxCell id="m5sTgkwVKxVvh67zWAer-388" value="链路追踪&#10;(Tracing Service)&#10;Zipkin" style="rounded=1;whiteSpace=wrap;html=1;fillColor=#805ad5;strokeColor=#553c9a;fontColor=#ffffff;fontSize=11;fontStyle=1;" parent="1" vertex="1">
                    <mxGeometry x="1284" y="1190" width="140" height="60" as="geometry"/>
                </mxCell>
                <mxCell id="m5sTgkwVKxVvh67zWAer-389" value="熔断器&#10;(Circuit Breaker)&#10;Hystrix" style="rounded=1;whiteSpace=wrap;html=1;fillColor=#805ad5;strokeColor=#553c9a;fontColor=#ffffff;fontSize=11;fontStyle=1;" parent="1" vertex="1">
                    <mxGeometry x="1522" y="1190" width="140" height="60" as="geometry"/>
                </mxCell>
                <mxCell id="m5sTgkwVKxVvh67zWAer-390" value="负载均衡&#10;(Load Balancer)&#10;Ribbon" style="rounded=1;whiteSpace=wrap;html=1;fillColor=#805ad5;strokeColor=#553c9a;fontColor=#ffffff;fontSize=11;fontStyle=1;" parent="1" vertex="1">
                    <mxGeometry x="1760" y="1190" width="140" height="60" as="geometry"/>
                </mxCell>
                <mxCell id="m5sTgkwVKxVvh67zWAer-397" value="MySQL&#10;主数据库" style="shape=cylinder3;whiteSpace=wrap;html=1;boundedLbl=1;backgroundOutline=1;size=15;fillColor=#3182ce;strokeColor=#2c5282;fontColor=#ffffff;fontSize=11;fontStyle=1;" parent="1" vertex="1">
                    <mxGeometry x="570" y="1500" width="120" height="60" as="geometry"/>
                </mxCell>
                <mxCell id="m5sTgkwVKxVvh67zWAer-398" value="Redis&#10;缓存" style="shape=cylinder3;whiteSpace=wrap;html=1;boundedLbl=1;backgroundOutline=1;size=15;fillColor=#e53e3e;strokeColor=#c53030;fontColor=#ffffff;fontSize=11;fontStyle=1;" parent="1" vertex="1">
                    <mxGeometry x="721" y="1500" width="120" height="60" as="geometry"/>
                </mxCell>
                <mxCell id="m5sTgkwVKxVvh67zWAer-399" value="MongoDB&#10;文档数据库" style="shape=cylinder3;whiteSpace=wrap;html=1;boundedLbl=1;backgroundOutline=1;size=15;fillColor=#38a169;strokeColor=#2f855a;fontColor=#ffffff;fontSize=11;fontStyle=1;" parent="1" vertex="1">
                    <mxGeometry x="873" y="1500" width="120" height="60" as="geometry"/>
                </mxCell>
                <mxCell id="m5sTgkwVKxVvh67zWAer-400" value="Elasticsearch&#10;搜索引擎" style="shape=cylinder3;whiteSpace=wrap;html=1;boundedLbl=1;backgroundOutline=1;size=15;fillColor=#d69e2e;strokeColor=#b7791f;fontColor=#ffffff;fontSize=11;fontStyle=1;" parent="1" vertex="1">
                    <mxGeometry x="1024" y="1500" width="120" height="60" as="geometry"/>
                </mxCell>
                <mxCell id="m5sTgkwVKxVvh67zWAer-401" value="RabbitMQ&#10;消息队列" style="shape=cylinder3;whiteSpace=wrap;html=1;boundedLbl=1;backgroundOutline=1;size=15;fillColor=#dd6b20;strokeColor=#c05621;fontColor=#ffffff;fontSize=11;fontStyle=1;" parent="1" vertex="1">
                    <mxGeometry x="1175" y="1500" width="120" height="60" as="geometry"/>
                </mxCell>
                <mxCell id="m5sTgkwVKxVvh67zWAer-402" value="Kafka&#10;流处理" style="shape=cylinder3;whiteSpace=wrap;html=1;boundedLbl=1;backgroundOutline=1;size=15;fillColor=#805ad5;strokeColor=#553c9a;fontColor=#ffffff;fontSize=11;fontStyle=1;" parent="1" vertex="1">
                    <mxGeometry x="1326" y="1500" width="120" height="60" as="geometry"/>
                </mxCell>
                <mxCell id="m5sTgkwVKxVvh67zWAer-403" value="PostgreSQL&#10;关系数据库" style="shape=cylinder3;whiteSpace=wrap;html=1;boundedLbl=1;backgroundOutline=1;size=15;fillColor=#3182ce;strokeColor=#2c5282;fontColor=#ffffff;fontSize=11;fontStyle=1;" parent="1" vertex="1">
                    <mxGeometry x="1478" y="1500" width="120" height="60" as="geometry"/>
                </mxCell>
                <mxCell id="m5sTgkwVKxVvh67zWAer-404" value="MinIO&#10;对象存储" style="shape=cylinder3;whiteSpace=wrap;html=1;boundedLbl=1;backgroundOutline=1;size=15;fillColor=#4a5568;strokeColor=#2d3748;fontColor=#ffffff;fontSize=11;fontStyle=1;" parent="1" vertex="1">
                    <mxGeometry x="1780" y="1500" width="120" height="60" as="geometry"/>
                </mxCell>
                <mxCell id="m5sTgkwVKxVvh67zWAer-405" value="InfluxDB&#10;时序数据库" style="shape=cylinder3;whiteSpace=wrap;html=1;boundedLbl=1;backgroundOutline=1;size=15;fillColor=#d69e2e;strokeColor=#b7791f;fontColor=#ffffff;fontSize=11;fontStyle=1;" parent="1" vertex="1">
                    <mxGeometry x="1629" y="1500" width="120" height="60" as="geometry"/>
                </mxCell>
                <mxCell id="m5sTgkwVKxVvh67zWAer-406" value="Docker&#10;容器化" style="rounded=1;whiteSpace=wrap;html=1;fillColor=#3182ce;strokeColor=#2c5282;fontColor=#ffffff;fontSize=11;fontStyle=1;" parent="1" vertex="1">
                    <mxGeometry x="560" y="1800" width="120" height="60" as="geometry"/>
                </mxCell>
                <mxCell id="m5sTgkwVKxVvh67zWAer-407" value="Kubernetes&#10;编排管理" style="rounded=1;whiteSpace=wrap;html=1;fillColor=#3182ce;strokeColor=#2c5282;fontColor=#ffffff;fontSize=11;fontStyle=1;" parent="1" vertex="1">
                    <mxGeometry x="763" y="1800" width="120" height="60" as="geometry"/>
                </mxCell>
                <mxCell id="m5sTgkwVKxVvh67zWAer-408" value="Jenkins&#10;CI/CD" style="rounded=1;whiteSpace=wrap;html=1;fillColor=#d69e2e;strokeColor=#b7791f;fontColor=#ffffff;fontSize=11;fontStyle=1;" parent="1" vertex="1">
                    <mxGeometry x="967" y="1800" width="120" height="60" as="geometry"/>
                </mxCell>
                <mxCell id="m5sTgkwVKxVvh67zWAer-409" value="Prometheus&#10;监控" style="rounded=1;whiteSpace=wrap;html=1;fillColor=#e53e3e;strokeColor=#c53030;fontColor=#ffffff;fontSize=11;fontStyle=1;" parent="1" vertex="1">
                    <mxGeometry x="1170" y="1800" width="120" height="60" as="geometry"/>
                </mxCell>
                <mxCell id="m5sTgkwVKxVvh67zWAer-410" value="Grafana&#10;可视化" style="rounded=1;whiteSpace=wrap;html=1;fillColor=#dd6b20;strokeColor=#c05621;fontColor=#ffffff;fontSize=11;fontStyle=1;" parent="1" vertex="1">
                    <mxGeometry x="1373" y="1800" width="120" height="60" as="geometry"/>
                </mxCell>
                <mxCell id="m5sTgkwVKxVvh67zWAer-411" value="Nginx&#10;负载均衡" style="rounded=1;whiteSpace=wrap;html=1;fillColor=#38a169;strokeColor=#2f855a;fontColor=#ffffff;fontSize=11;fontStyle=1;" parent="1" vertex="1">
                    <mxGeometry x="1577" y="1800" width="120" height="60" as="geometry"/>
                </mxCell>
                <mxCell id="m5sTgkwVKxVvh67zWAer-412" value="ELK Stack&#10;日志分析" style="rounded=1;whiteSpace=wrap;html=1;fillColor=#805ad5;strokeColor=#553c9a;fontColor=#ffffff;fontSize=11;fontStyle=1;" parent="1" vertex="1">
                    <mxGeometry x="1780" y="1800" width="120" height="60" as="geometry"/>
                </mxCell>
                <mxCell id="8" value="&lt;mxfile host=&quot;65bd71144e&quot;&gt;&#10;    &lt;diagram name=&quot;详细微服务架构设计&quot; id=&quot;detailed-microservice-arch&quot;&gt;&#10;        &lt;mxGraphModel dx=&quot;1600&quot; dy=&quot;1200&quot; grid=&quot;1&quot; gridSize=&quot;10&quot; guides=&quot;1&quot; tooltips=&quot;1&quot; connect=&quot;1&quot; arrows=&quot;1&quot; fold=&quot;1&quot; page=&quot;1&quot; pageScale=&quot;1&quot; pageWidth=&quot;1169&quot; pageHeight=&quot;827&quot; background=&quot;none&quot; math=&quot;1&quot; shadow=&quot;0&quot;&gt;&#10;            &lt;root&gt;&#10;                &lt;mxCell id=&quot;0&quot;/&gt;&#10;                &lt;mxCell id=&quot;1&quot; parent=&quot;0&quot;/&gt;&#10;                &#10;                &lt;!-- 用户层标题 --&gt;&#10;                &lt;mxCell id=&quot;user-layer-title&quot; value=&quot;用户层 (User Layer)&quot; style=&quot;text;html=1;strokeColor=none;fillColor=#2d3748;align=center;verticalAlign=middle;whiteSpace=wrap;rounded=1;fontSize=16;fontStyle=1;fontColor=#ffffff;&quot; vertex=&quot;1&quot; parent=&quot;1&quot;&gt;&#10;                    &lt;mxGeometry x=&quot;50&quot; y=&quot;20&quot; width=&quot;1100&quot; height=&quot;40&quot; as=&quot;geometry&quot;/&gt;&#10;                &lt;/mxCell&gt;&#10;                &#10;                &lt;!-- 用户层组件 --&gt;&#10;                &lt;mxCell id=&quot;web-app&quot; value=&quot;Web应用&amp;#10;(React/Vue.js)&amp;#10;• 用户界面&amp;#10;• 状态管理&amp;#10;• 路由控制&quot; style=&quot;rounded=1;whiteSpace=wrap;html=1;fillColor=#805ad5;strokeColor=#553c9a;fontColor=#ffffff;fontSize=11;fontStyle=1;&quot; vertex=&quot;1&quot; parent=&quot;1&quot;&gt;&#10;                    &lt;mxGeometry x=&quot;50&quot; y=&quot;80&quot; width=&quot;200&quot; height=&quot;100&quot; as=&quot;geometry&quot;/&gt;&#10;                &lt;/mxCell&gt;&#10;                &#10;                &lt;mxCell id=&quot;mobile-app&quot; value=&quot;移动应用&amp;#10;(Android/iOS)&amp;#10;• 原生界面&amp;#10;• 推送通知&amp;#10;• 离线缓存&quot; style=&quot;rounded=1;whiteSpace=wrap;html=1;fillColor=#805ad5;strokeColor=#553c9a;fontColor=#ffffff;fontSize=11;fontStyle=1;&quot; vertex=&quot;1&quot; parent=&quot;1&quot;&gt;&#10;                    &lt;mxGeometry x=&quot;280&quot; y=&quot;80&quot; width=&quot;200&quot; height=&quot;100&quot; as=&quot;geometry&quot;/&gt;&#10;                &lt;/mxCell&gt;&#10;                &#10;                &lt;mxCell id=&quot;admin-panel&quot; value=&quot;管理后台&amp;#10;(Vue Admin)&amp;#10;• 数据统计&amp;#10;• 系统配置&amp;#10;• 用户管理&quot; style=&quot;rounded=1;whiteSpace=wrap;html=1;fillColor=#805ad5;strokeColor=#553c9a;fontColor=#ffffff;fontSize=11;fontStyle=1;&quot; vertex=&quot;1&quot; parent=&quot;1&quot;&gt;&#10;                    &lt;mxGeometry x=&quot;510&quot; y=&quot;80&quot; width=&quot;200&quot; height=&quot;100&quot; as=&quot;geometry&quot;/&gt;&#10;                &lt;/mxCell&gt;&#10;                &#10;                &lt;mxCell id=&quot;third-party&quot; value=&quot;第三方集成&amp;#10;(API Client)&amp;#10;• 支付接口&amp;#10;• 短信服务&amp;#10;• 地图服务&quot; style=&quot;rounded=1;whiteSpace=wrap;html=1;fillColor=#805ad5;strokeColor=#553c9a;fontColor=#ffffff;fontSize=11;fontStyle=1;&quot; vertex=&quot;1&quot; parent=&quot;1&quot;&gt;&#10;                    &lt;mxGeometry x=&quot;740&quot; y=&quot;80&quot; width=&quot;200&quot; height=&quot;100&quot; as=&quot;geometry&quot;/&gt;&#10;                &lt;/mxCell&gt;&#10;                &#10;                &lt;mxCell id=&quot;iot-device&quot; value=&quot;IoT设备&amp;#10;(传感器/控制器)&amp;#10;• 数据采集&amp;#10;• 远程控制&amp;#10;• 实时监控&quot; style=&quot;rounded=1;whiteSpace=wrap;html=1;fillColor=#805ad5;strokeColor=#553c9a;fontColor=#ffffff;fontSize=11;fontStyle=1;&quot; vertex=&quot;1&quot; parent=&quot;1&quot;&gt;&#10;                    &lt;mxGeometry x=&quot;970&quot; y=&quot;80&quot; width=&quot;200&quot; height=&quot;100&quot; as=&quot;geometry&quot;/&gt;&#10;                &lt;/mxCell&gt;&#10;                &#10;                &lt;!-- API网关层标题 --&gt;&#10;                &lt;mxCell id=&quot;gateway-layer-title&quot; value=&quot;API网关层 (Gateway Layer)&quot; style=&quot;text;html=1;strokeColor=none;fillColor=#744210;align=center;verticalAlign=middle;whiteSpace=wrap;rounded=1;fontSize=16;fontStyle=1;fontColor=#ffffff;&quot; vertex=&quot;1&quot; parent=&quot;1&quot;&gt;&#10;                    &lt;mxGeometry x=&quot;50&quot; y=&quot;220&quot; width=&quot;1100&quot; height=&quot;40&quot; as=&quot;geometry&quot;/&gt;&#10;                &lt;/mxCell&gt;&#10;                &#10;                &lt;!-- API网关组件 --&gt;&#10;                &lt;mxCell id=&quot;api-gateway&quot; value=&quot;API网关&amp;#10;(Spring Cloud Gateway)&amp;#10;• 路由转发&amp;#10;• 负载均衡&amp;#10;• 限流熔断&amp;#10;• 认证授权&amp;#10;• 日志记录&quot; style=&quot;rounded=1;whiteSpace=wrap;html=1;fillColor=#dd6b20;strokeColor=#c05621;fontColor=#ffffff;fontSize=11;fontStyle=1;&quot; vertex=&quot;1&quot; parent=&quot;1&quot;&gt;&#10;                    &lt;mxGeometry x=&quot;50&quot; y=&quot;280&quot; width=&quot;300&quot; height=&quot;120&quot; as=&quot;geometry&quot;/&gt;&#10;                &lt;/mxCell&gt;&#10;                &#10;                &lt;mxCell id=&quot;load-balancer&quot; value=&quot;负载均衡器&amp;#10;(Nginx/HAProxy)&amp;#10;• 流量分发&amp;#10;• 健康检查&amp;#10;• SSL终止&amp;#10;• 静态资源&quot; style=&quot;rounded=1;whiteSpace=wrap;html=1;fillColor=#dd6b20;strokeColor=#c05621;fontColor=#ffffff;fontSize=11;fontStyle=1;&quot; vertex=&quot;1&quot; parent=&quot;1&quot;&gt;&#10;                    &lt;mxGeometry x=&quot;380&quot; y=&quot;280&quot; width=&quot;300&quot; height=&quot;120&quot; as=&quot;geometry&quot;/&gt;&#10;                &lt;/mxCell&gt;&#10;                &#10;                &lt;mxCell id=&quot;cdn&quot; value=&quot;CDN加速&amp;#10;(阿里云/腾讯云)&amp;#10;• 静态资源缓存&amp;#10;• 全球加速&amp;#10;• 图片处理&amp;#10;• 视频转码&quot; style=&quot;rounded=1;whiteSpace=wrap;html=1;fillColor=#dd6b20;strokeColor=#c05621;fontColor=#ffffff;fontSize=11;fontStyle=1;&quot; vertex=&quot;1&quot; parent=&quot;1&quot;&gt;&#10;                    &lt;mxGeometry x=&quot;710&quot; y=&quot;280&quot; width=&quot;300&quot; height=&quot;120&quot; as=&quot;geometry&quot;/&gt;&#10;                &lt;/mxCell&gt;&#10;                &#10;                &lt;mxCell id=&quot;waf&quot; value=&quot;Web应用防火墙&amp;#10;(WAF)&amp;#10;• DDoS防护&amp;#10;• SQL注入防护&amp;#10;• XSS防护&amp;#10;• 恶意请求拦截&quot; style=&quot;rounded=1;whiteSpace=wrap;html=1;fillColor=#dd6b20;strokeColor=#c05621;fontColor=#ffffff;fontSize=11;fontStyle=1;&quot; vertex=&quot;1&quot; parent=&quot;1&quot;&gt;&#10;                    &lt;mxGeometry x=&quot;1040&quot; y=&quot;280&quot; width=&quot;300&quot; height=&quot;120&quot; as=&quot;geometry&quot;/&gt;&#10;                &lt;/mxCell&gt;&#10;                &#10;                &lt;!-- 业务服务层标题 --&gt;&#10;                &lt;mxCell id=&quot;business-layer-title&quot; value=&quot;业务服务层 (Business Services)&quot; style=&quot;text;html=1;strokeColor=none;fillColor=#38a169;align=center;verticalAlign=middle;whiteSpace=wrap;rounded=1;fontSize=16;fontStyle=1;fontColor=#ffffff;&quot; vertex=&quot;1&quot; parent=&quot;1&quot;&gt;&#10;                    &lt;mxGeometry x=&quot;50&quot; y=&quot;440&quot; width=&quot;1100&quot; height=&quot;40&quot; as=&quot;geometry&quot;/&gt;&#10;                &lt;/mxCell&gt;&#10;                &#10;                &lt;!-- 业务服务组件 --&gt;&#10;                &lt;mxCell id=&quot;user-service&quot; value=&quot;用户服务&amp;#10;(User Service)&amp;#10;• 用户注册/登录&amp;#10;• 个人信息管理&amp;#10;• 权限控制&amp;#10;• 用户画像&quot; style=&quot;rounded=1;whiteSpace=wrap;html=1;fillColor=#38a169;strokeColor=#2f855a;fontColor=#ffffff;fontSize=11;fontStyle=1;&quot; vertex=&quot;1&quot; parent=&quot;1&quot;&gt;&#10;                    &lt;mxGeometry x=&quot;50&quot; y=&quot;500&quot; width=&quot;180&quot; height=&quot;100&quot; as=&quot;geometry&quot;/&gt;&#10;                &lt;/mxCell&gt;&#10;                &#10;                &lt;mxCell id=&quot;order-service&quot; value=&quot;订单服务&amp;#10;(Order Service)&amp;#10;• 订单创建/管理&amp;#10;• 支付集成&amp;#10;• 库存检查&amp;#10;• 订单状态跟踪&quot; style=&quot;rounded=1;whiteSpace=wrap;html=1;fillColor=#38a169;strokeColor=#2f855a;fontColor=#ffffff;fontSize=11;fontStyle=1;&quot; vertex=&quot;1&quot; parent=&quot;1&quot;&gt;&#10;                    &lt;mxGeometry x=&quot;250&quot; y=&quot;500&quot; width=&quot;180&quot; height=&quot;100&quot; as=&quot;geometry&quot;/&gt;&#10;                &lt;/mxCell&gt;&#10;                &#10;                &lt;mxCell id=&quot;product-service&quot; value=&quot;商品服务&amp;#10;(Product Service)&amp;#10;• 商品信息管理&amp;#10;• 分类目录&amp;#10;• 价格策略&amp;#10;• 库存管理&quot; style=&quot;rounded=1;whiteSpace=wrap;html=1;fillColor=#38a169;strokeColor=#2f855a;fontColor=#ffffff;fontSize=11;fontStyle=1;&quot; vertex=&quot;1&quot; parent=&quot;1&quot;&gt;&#10;                    &lt;mxGeometry x=&quot;450&quot; y=&quot;500&quot; width=&quot;180&quot; height=&quot;100&quot; as=&quot;geometry&quot;/&gt;&#10;                &lt;/mxCell&gt;&#10;                &#10;                &lt;mxCell id=&quot;payment-service&quot; value=&quot;支付服务&amp;#10;(Payment Service)&amp;#10;• 支付处理&amp;#10;• 退款管理&amp;#10;• 对账结算&amp;#10;• 风控检测&quot; style=&quot;rounded=1;whiteSpace=wrap;html=1;fillColor=#38a169;strokeColor=#2f855a;fontColor=#ffffff;fontSize=11;fontStyle=1;&quot; vertex=&quot;1&quot; parent=&quot;1&quot;&gt;&#10;                    &lt;mxGeometry x=&quot;650&quot; y=&quot;500&quot; width=&quot;180&quot; height=&quot;100&quot; as=&quot;geometry&quot;/&gt;&#10;                &lt;/mxCell&gt;&#10;                &#10;                &lt;mxCell id=&quot;notification-service&quot; value=&quot;通知服务&amp;#10;(Notification Service)&amp;#10;• 短信推送&amp;#10;• 邮件发送&amp;#10;• 站内消息&amp;#10;• 推送通知&quot; style=&quot;rounded=1;whiteSpace=wrap;html=1;fillColor=#38a169;strokeColor=#2f855a;fontColor=#ffffff;fontSize=11;fontStyle=1;&quot; vertex=&quot;1&quot; parent=&quot;1&quot;&gt;&#10;                    &lt;mxGeometry x=&quot;850&quot; y=&quot;500&quot; width=&quot;180&quot; height=&quot;100&quot; as=&quot;geometry&quot;/&gt;&#10;                &lt;/mxCell&gt;&#10;                &#10;                &lt;mxCell id=&quot;search-service&quot; value=&quot;搜索服务&amp;#10;(Search Service)&amp;#10;• 全文搜索&amp;#10;• 智能推荐&amp;#10;• 搜索历史&amp;#10;• 热门搜索&quot; style=&quot;rounded=1;whiteSpace=wrap;html=1;fillColor=#38a169;strokeColor=#2f855a;fontColor=#ffffff;fontSize=11;fontStyle=1;&quot; vertex=&quot;1&quot; parent=&quot;1&quot;&gt;&#10;                    &lt;mxGeometry x=&quot;1050&quot; y=&quot;500&quot; width=&quot;180&quot; height=&quot;100&quot; as=&quot;geometry&quot;/&gt;&#10;                &lt;/mxCell&gt;&#10;                &#10;                &lt;!-- 基础服务层标题 --&gt;&#10;                &lt;mxCell id=&quot;foundation-layer-title&quot; value=&quot;基础服务层 (Foundation Services)&quot; style=&quot;text;html=1;strokeColor=none;fillColor=#805ad5;align=center;verticalAlign=middle;whiteSpace=wrap;rounded=1;fontSize=16;fontStyle=1;fontColor=#ffffff;&quot; vertex=&quot;1&quot; parent=&quot;1&quot;&gt;&#10;                    &lt;mxGeometry x=&quot;50&quot; y=&quot;640&quot; width=&quot;1100&quot; height=&quot;40&quot; as=&quot;geometry&quot;/&gt;&#10;                &lt;/mxCell&gt;&#10;                &#10;                &lt;!-- 基础服务组件 --&gt;&#10;                &lt;mxCell id=&quot;auth-service&quot; value=&quot;认证服务&amp;#10;(Auth Service)&amp;#10;• JWT令牌管理&amp;#10;• OAuth2集成&amp;#10;• 单点登录&amp;#10;• 权限验证&quot; style=&quot;rounded=1;whiteSpace=wrap;html=1;fillColor=#805ad5;strokeColor=#553c9a;fontColor=#ffffff;fontSize=11;fontStyle=1;&quot; vertex=&quot;1&quot; parent=&quot;1&quot;&gt;&#10;                    &lt;mxGeometry x=&quot;50&quot; y=&quot;700&quot; width=&quot;150&quot; height=&quot;100&quot; as=&quot;geometry&quot;/&gt;&#10;                &lt;/mxCell&gt;&#10;                &#10;                &lt;mxCell id=&quot;config-service&quot; value=&quot;配置服务&amp;#10;(Config Service)&amp;#10;• 配置管理&amp;#10;• 动态更新&amp;#10;• 环境隔离&amp;#10;• 配置加密&quot; style=&quot;rounded=1;whiteSpace=wrap;html=1;fillColor=#805ad5;strokeColor=#553c9a;fontColor=#ffffff;fontSize=11;fontStyle=1;&quot; vertex=&quot;1&quot; parent=&quot;1&quot;&gt;&#10;                    &lt;mxGeometry x=&quot;220&quot; y=&quot;700&quot; width=&quot;150&quot; height=&quot;100&quot; as=&quot;geometry&quot;/&gt;&#10;                &lt;/mxCell&gt;&#10;                &#10;                &lt;mxCell id=&quot;discovery-service&quot; value=&quot;服务发现&amp;#10;(Discovery Service)&amp;#10;• 服务注册&amp;#10;• 健康检查&amp;#10;• 负载均衡&amp;#10;• 故障转移&quot; style=&quot;rounded=1;whiteSpace=wrap;html=1;fillColor=#805ad5;strokeColor=#553c9a;fontColor=#ffffff;fontSize=11;fontStyle=1;&quot; vertex=&quot;1&quot; parent=&quot;1&quot;&gt;&#10;                    &lt;mxGeometry x=&quot;390&quot; y=&quot;700&quot; width=&quot;150&quot; height=&quot;100&quot; as=&quot;geometry&quot;/&gt;&#10;                &lt;/mxCell&gt;&#10;                &#10;                &lt;mxCell id=&quot;monitor-service&quot; value=&quot;监控服务&amp;#10;(Monitor Service)&amp;#10;• 性能监控&amp;#10;• 告警通知&amp;#10;• 日志收集&amp;#10;• 指标统计&quot; style=&quot;rounded=1;whiteSpace=wrap;html=1;fillColor=#805ad5;strokeColor=#553c9a;fontColor=#ffffff;fontSize=11;fontStyle=1;&quot; vertex=&quot;1&quot; parent=&quot;1&quot;&gt;&#10;                    &lt;mxGeometry x=&quot;560&quot; y=&quot;700&quot; width=&quot;150&quot; height=&quot;100&quot; as=&quot;geometry&quot;/&gt;&#10;                &lt;/mxCell&gt;&#10;                &#10;                &lt;mxCell id=&quot;tracing-service&quot; value=&quot;链路追踪&amp;#10;(Tracing Service)&amp;#10;• 分布式追踪&amp;#10;• 性能分析&amp;#10;• 错误定位&amp;#10;• 调用链分析&quot; style=&quot;rounded=1;whiteSpace=wrap;html=1;fillColor=#805ad5;strokeColor=#553c9a;fontColor=#ffffff;fontSize=11;fontStyle=1;&quot; vertex=&quot;1&quot; parent=&quot;1&quot;&gt;&#10;                    &lt;mxGeometry x=&quot;730&quot; y=&quot;700&quot; width=&quot;150&quot; height=&quot;100&quot; as=&quot;geometry&quot;/&gt;&#10;                &lt;/mxCell&gt;&#10;                &#10;                &lt;mxCell id=&quot;circuit-breaker&quot; value=&quot;熔断器&amp;#10;(Circuit Breaker)&amp;#10;• 故障隔离&amp;#10;• 降级策略&amp;#10;• 自动恢复&amp;#10;• 监控告警&quot; style=&quot;rounded=1;whiteSpace=wrap;html=1;fillColor=#805ad5;strokeColor=#553c9a;fontColor=#ffffff;fontSize=11;fontStyle=1;&quot; vertex=&quot;1&quot; parent=&quot;1&quot;&gt;&#10;                    &lt;mxGeometry x=&quot;900&quot; y=&quot;700&quot; width=&quot;150&quot; height=&quot;100&quot; as=&quot;geometry&quot;/&gt;&#10;                &lt;/mxCell&gt;&#10;                &#10;                &lt;mxCell id=&quot;rate-limiter&quot; value=&quot;限流器&amp;#10;(Rate Limiter)&amp;#10;• 流量控制&amp;#10;• 令牌桶算法&amp;#10;• 滑动窗口&amp;#10;• 自适应限流&quot; style=&quot;rounded=1;whiteSpace=wrap;html=1;fillColor=#805ad5;strokeColor=#553c9a;fontColor=#ffffff;fontSize=11;fontStyle=1;&quot; vertex=&quot;1&quot; parent=&quot;1&quot;&gt;&#10;                    &lt;mxGeometry x=&quot;1070&quot; y=&quot;700&quot; width=&quot;150&quot; height=&quot;100&quot; as=&quot;geometry&quot;/&gt;&#10;                &lt;/mxCell&gt;&#10;                &#10;                &lt;!-- 数据层标题 --&gt;&#10;                &lt;mxCell id=&quot;data-layer-title&quot; value=&quot;数据层 (Data Layer)&quot; style=&quot;text;html=1;strokeColor=none;fillColor=#3182ce;align=center;verticalAlign=middle;whiteSpace=wrap;rounded=1;fontSize=16;fontStyle=1;fontColor=#ffffff;&quot; vertex=&quot;1&quot; parent=&quot;1&quot;&gt;&#10;                    &lt;mxGeometry x=&quot;50&quot; y=&quot;840&quot; width=&quot;1100&quot; height=&quot;40&quot; as=&quot;geometry&quot;/&gt;&#10;                &lt;/mxCell&gt;&#10;                &#10;                &lt;!-- 数据存储组件 --&gt;&#10;                &lt;mxCell id=&quot;mysql&quot; value=&quot;MySQL&amp;#10;主数据库&amp;#10;• 用户数据&amp;#10;• 订单数据&amp;#10;• 商品数据&amp;#10;• 事务处理&quot; style=&quot;shape=cylinder3;whiteSpace=wrap;html=1;boundedLbl=1;backgroundOutline=1;size=15;fillColor=#3182ce;strokeColor=#2c5282;fontColor=#ffffff;fontSize=11;fontStyle=1;&quot; vertex=&quot;1&quot; parent=&quot;1&quot;&gt;&#10;                    &lt;mxGeometry x=&quot;50&quot; y=&quot;900&quot; width=&quot;120&quot; height=&quot;80&quot; as=&quot;geometry&quot;/&gt;&#10;                &lt;/mxCell&gt;&#10;                &#10;                &lt;mxCell id=&quot;redis&quot; value=&quot;Redis&amp;#10;缓存数据库&amp;#10;• 会话存储&amp;#10;• 热点数据&amp;#10;• 分布式锁&amp;#10;• 计数器&quot; style=&quot;shape=cylinder3;whiteSpace=wrap;html=1;boundedLbl=1;backgroundOutline=1;size=15;fillColor=#e53e3e;strokeColor=#c53030;fontColor=#ffffff;fontSize=11;fontStyle=1;&quot; vertex=&quot;1&quot; parent=&quot;1&quot;&gt;&#10;                    &lt;mxGeometry x=&quot;200&quot; y=&quot;900&quot; width=&quot;120&quot; height=&quot;80&quot; as=&quot;geometry&quot;/&gt;&#10;                &lt;/mxCell&gt;&#10;                &#10;                &lt;mxCell id=&quot;mongodb&quot; value=&quot;MongoDB&amp;#10;文档数据库&amp;#10;• 日志数据&amp;#10;• 配置数据&amp;#10;• 非结构化数据&amp;#10;• 大数据存储&quot; style=&quot;shape=cylinder3;whiteSpace=wrap;html=1;boundedLbl=1;backgroundOutline=1;size=15;fillColor=#38a169;strokeColor=#2f855a;fontColor=#ffffff;fontSize=11;fontStyle=1;&quot; vertex=&quot;1&quot; parent=&quot;1&quot;&gt;&#10;                    &lt;mxGeometry x=&quot;350&quot; y=&quot;900&quot; width=&quot;120&quot; height=&quot;80&quot; as=&quot;geometry&quot;/&gt;&#10;                &lt;/mxCell&gt;&#10;                &#10;                &lt;mxCell id=&quot;elasticsearch&quot; value=&quot;Elasticsearch&amp;#10;搜索引擎&amp;#10;• 全文检索&amp;#10;• 数据分析&amp;#10;• 日志分析&amp;#10;• 实时搜索&quot; style=&quot;shape=cylinder3;whiteSpace=wrap;html=1;boundedLbl=1;backgroundOutline=1;size=15;fillColor=#d69e2e;strokeColor=#b7791f;fontColor=#ffffff;fontSize=11;fontStyle=1;&quot; vertex=&quot;1&quot; parent=&quot;1&quot;&gt;&#10;                    &lt;mxGeometry x=&quot;500&quot; y=&quot;900&quot; width=&quot;120&quot; height=&quot;80&quot; as=&quot;geometry&quot;/&gt;&#10;                &lt;/mxCell&gt;&#10;                &#10;                &lt;mxCell id=&quot;rabbitmq&quot; value=&quot;RabbitMQ&amp;#10;消息队列&amp;#10;• 异步处理&amp;#10;• 解耦服务&amp;#10;• 流量削峰&amp;#10;• 事件驱动&quot; style=&quot;shape=cylinder3;whiteSpace=wrap;html=1;boundedLbl=1;backgroundOutline=1;size=15;fillColor=#dd6b20;strokeColor=#c05621;fontColor=#ffffff;fontSize=11;fontStyle=1;&quot; vertex=&quot;1&quot; parent=&quot;1&quot;&gt;&#10;                    &lt;mxGeometry x=&quot;650&quot; y=&quot;900&quot; width=&quot;120&quot; height=&quot;80&quot; as=&quot;geometry&quot;/&gt;&#10;                &lt;/mxCell&gt;&#10;                &#10;                &lt;mxCell id=&quot;kafka&quot; value=&quot;Kafka&amp;#10;流处理平台&amp;#10;• 实时数据流&amp;#10;• 日志收集&amp;#10;• 事件溯源&amp;#10;• 数据管道&quot; style=&quot;shape=cylinder3;whiteSpace=wrap;html=1;boundedLbl=1;backgroundOutline=1;size=15;fillColor=#805ad5;strokeColor=#553c9a;fontColor=#ffffff;fontSize=11;fontStyle=1;&quot; vertex=&quot;1&quot; parent=&quot;1&quot;&gt;&#10;                    &lt;mxGeometry x=&quot;800&quot; y=&quot;900&quot; width=&quot;120&quot; height=&quot;80&quot; as=&quot;geometry&quot;/&gt;&#10;                &lt;/mxCell&gt;&#10;                &#10;                &lt;mxCell id=&quot;minio&quot; value=&quot;MinIO&amp;#10;对象存储&amp;#10;• 文件存储&amp;#10;• 图片处理&amp;#10;• 视频存储&amp;#10;• 备份数据&quot; style=&quot;shape=cylinder3;whiteSpace=wrap;html=1;boundedLbl=1;backgroundOutline=1;size=15;fillColor=#4a5568;strokeColor=#2d3748;fontColor=#ffffff;fontSize=11;fontStyle=1;&quot; vertex=&quot;1&quot; parent=&quot;1&quot;&gt;&#10;                    &lt;mxGeometry x=&quot;950&quot; y=&quot;900&quot; width=&quot;120&quot; height=&quot;80&quot; as=&quot;geometry&quot;/&gt;&#10;                &lt;/mxCell&gt;&#10;                &#10;                &lt;!-- 基础设施层标题 --&gt;&#10;                &lt;mxCell id=&quot;infrastructure-layer-title&quot; value=&quot;基础设施层 (Infrastructure Layer)&quot; style=&quot;text;html=1;strokeColor=none;fillColor=#4a5568;align=center;verticalAlign=middle;whiteSpace=wrap;rounded=1;fontSize=16;fontStyle=1;fontColor=#ffffff;&quot; vertex=&quot;1&quot; parent=&quot;1&quot;&gt;&#10;                    &lt;mxGeometry x=&quot;50&quot; y=&quot;1020&quot; width=&quot;1100&quot; height=&quot;40&quot; as=&quot;geometry&quot;/&gt;&#10;                &lt;/mxCell&gt;&#10;                &#10;                &lt;!-- 基础设施组件 --&gt;&#10;                &lt;mxCell id=&quot;docker&quot; value=&quot;Docker&amp;#10;容器化&amp;#10;• 应用打包&amp;#10;• 环境隔离&amp;#10;• 快速部署&amp;#10;• 版本管理&quot; style=&quot;rounded=1;whiteSpace=wrap;html=1;fillColor=#3182ce;strokeColor=#2c5282;fontColor=#ffffff;fontSize=11;fontStyle=1;&quot; vertex=&quot;1&quot; parent=&quot;1&quot;&gt;&#10;                    &lt;mxGeometry x=&quot;50&quot; y=&quot;1080&quot; width=&quot;120&quot; height=&quot;80&quot; as=&quot;geometry&quot;/&gt;&#10;                &lt;/mxCell&gt;&#10;                &#10;                &lt;mxCell id=&quot;kubernetes&quot; value=&quot;Kubernetes&amp;#10;编排管理&amp;#10;• 自动扩缩容&amp;#10;• 服务发现&amp;#10;• 滚动更新&amp;#10;• 故障恢复&quot; style=&quot;rounded=1;whiteSpace=wrap;html=1;fillColor=#3182ce;strokeColor=#2c5282;fontColor=#ffffff;fontSize=11;fontStyle=1;&quot; vertex=&quot;1&quot; parent=&quot;1&quot;&gt;&#10;                    &lt;mxGeometry x=&quot;190&quot; y=&quot;1080&quot; width=&quot;120&quot; height=&quot;80&quot; as=&quot;geometry&quot;/&gt;&#10;                &lt;/mxCell&gt;&#10;                &#10;                &lt;mxCell id=&quot;jenkins&quot; value=&quot;Jenkins&amp;#10;CI/CD流水线&amp;#10;• 代码构建&amp;#10;• 自动化测试&amp;#10;• 自动部署&amp;#10;• 质量门禁&quot; style=&quot;rounded=1;whiteSpace=wrap;html=1;fillColor=#d69e2e;strokeColor=#b7791f;fontColor=#ffffff;fontSize=11;fontStyle=1;&quot; vertex=&quot;1&quot; parent=&quot;1&quot;&gt;&#10;                    &lt;mxGeometry x=&quot;330&quot; y=&quot;1080&quot; width=&quot;120&quot; height=&quot;80&quot; as=&quot;geometry&quot;/&gt;&#10;                &lt;/mxCell&gt;&#10;                &#10;                &lt;mxCell id=&quot;prometheus&quot; value=&quot;Prometheus&amp;#10;监控系统&amp;#10;• 指标收集&amp;#10;• 告警规则&amp;#10;• 数据存储&amp;#10;• 查询分析&quot; style=&quot;rounded=1;whiteSpace=wrap;html=1;fillColor=#e53e3e;strokeColor=#c53030;fontColor=#ffffff;fontSize=11;fontStyle=1;&quot; vertex=&quot;1&quot; parent=&quot;1&quot;&gt;&#10;                    &lt;mxGeometry x=&quot;470&quot; y=&quot;1080&quot; width=&quot;120&quot; height=&quot;80&quot; as=&quot;geometry&quot;/&gt;&#10;                &lt;/mxCell&gt;&#10;                &#10;                &lt;mxCell id=&quot;grafana&quot; value=&quot;Grafana&amp;#10;可视化面板&amp;#10;• 监控大屏&amp;#10;• 自定义图表&amp;#10;• 告警通知&amp;#10;• 数据导出&quot; style=&quot;rounded=1;whiteSpace=wrap;html=1;fillColor=#dd6b20;strokeColor=#c05621;fontColor=#ffffff;fontSize=11;fontStyle=1;&quot; vertex=&quot;1&quot; parent=&quot;1&quot;&gt;&#10;                    &lt;mxGeometry x=&quot;610&quot; y=&quot;1080&quot; width=&quot;120&quot; height=&quot;80&quot; as=&quot;geometry&quot;/&gt;&#10;                &lt;/mxCell&gt;&#10;                &#10;                &lt;mxCell id=&quot;elk&quot; value=&quot;ELK Stack&amp;#10;日志分析&amp;#10;• 日志收集&amp;#10;• 实时分析&amp;#10;• 全文检索&amp;#10;• 可视化展示&quot; style=&quot;rounded=1;whiteSpace=wrap;html=1;fillColor=#805ad5;strokeColor=#553c9a;fontColor=#ffffff;fontSize=11;fontStyle=1;&quot; vertex=&quot;1&quot; parent=&quot;1&quot;&gt;&#10;                    &lt;mxGeometry x=&quot;750&quot; y=&quot;1080&quot; width=&quot;120&quot; height=&quot;80&quot; as=&quot;geometry&quot;/&gt;&#10;                &lt;/mxCell&gt;&#10;                &#10;                &lt;mxCell id=&quot;vault&quot; value=&quot;Vault&amp;#10;密钥管理&amp;#10;• 密钥存储&amp;#10;• 动态密钥&amp;#10;• 访问控制&amp;#10;• 审计日志&quot; style=&quot;rounded=1;whiteSpace=wrap;html=1;fillColor=#4a5568;strokeColor=#2d3748;fontColor=#ffffff;fontSize=11;fontStyle=1;&quot; vertex=&quot;1&quot; parent=&quot;1&quot;&gt;&#10;                    &lt;mxGeometry x=&quot;890&quot; y=&quot;1080&quot; width=&quot;120&quot; height=&quot;80&quot; as=&quot;geometry&quot;/&gt;&#10;                &lt;/mxCell&gt;&#10;                &#10;                &lt;mxCell id=&quot;istio&quot; value=&quot;Istio&amp;#10;服务网格&amp;#10;• 流量管理&amp;#10;• 安全策略&amp;#10;• 可观测性&amp;#10;• 策略执行&quot; style=&quot;rounded=1;whiteSpace=wrap;html=1;fillColor=#3182ce;strokeColor=#2c5282;fontColor=#ffffff;fontSize=11;fontStyle=1;&quot; vertex=&quot;1&quot; parent=&quot;1&quot;&gt;&#10;                    &lt;mxGeometry x=&quot;1030&quot; y=&quot;1080&quot; width=&quot;120&quot; height=&quot;80&quot; as=&quot;geometry&quot;/&gt;&#10;                &lt;/mxCell&gt;&#10;                &#10;                &lt;!-- 调用关系连接线 --&gt;&#10;                &lt;!-- 用户层到网关层 --&gt;&#10;                &lt;mxCell id=&quot;edge1&quot; style=&quot;edgeStyle=orthogonalEdgeStyle;rounded=0;orthogonalLoop=1;jettySize=auto;html=1;exitX=0.5;exitY=1;exitDx=0;exitDy=0;entryX=0.5;entryY=0;entryDx=0;entryDy=0;flowAnimation=1;strokeColor=#805ad5;strokeWidth=2;&quot; edge=&quot;1&quot; parent=&quot;1&quot; source=&quot;web-app&quot; target=&quot;api-gateway&quot;&gt;&#10;                    &lt;mxGeometry relative=&quot;1&quot; as=&quot;geometry&quot;/&gt;&#10;                &lt;/mxCell&gt;&#10;                &#10;                &lt;mxCell id=&quot;edge2&quot; style=&quot;edgeStyle=orthogonalEdgeStyle;rounded=0;orthogonalLoop=1;jettySize=auto;html=1;exitX=0.5;exitY=1;exitDx=0;exitDy=0;entryX=0.5;entryY=0;entryDx=0;entryDy=0;flowAnimation=1;strokeColor=#805ad5;strokeWidth=2;&quot; edge=&quot;1&quot; parent=&quot;1&quot; source=&quot;mobile-app&quot; target=&quot;api-gateway&quot;&gt;&#10;                    &lt;mxGeometry relative=&quot;1&quot; as=&quot;geometry&quot;/&gt;&#10;                &lt;/mxCell&gt;&#10;                &#10;                &lt;mxCell id=&quot;edge3&quot; style=&quot;edgeStyle=orthogonalEdgeStyle;rounded=0;orthogonalLoop=1;jettySize=auto;html=1;exitX=0.5;exitY=1;exitDx=0;exitDy=0;entryX=0.5;entryY=0;entryDx=0;entryDy=0;flowAnimation=1;strokeColor=#805ad5;strokeWidth=2;&quot; edge=&quot;1&quot; parent=&quot;1&quot; source=&quot;admin-panel&quot; target=&quot;api-gateway&quot;&gt;&#10;                    &lt;mxGeometry relative=&quot;1&quot; as=&quot;geometry&quot;/&gt;&#10;                &lt;/mxCell&gt;&#10;                &#10;                &lt;!-- 网关层到业务服务层 --&gt;&#10;                &lt;mxCell id=&quot;edge4&quot; style=&quot;edgeStyle=orthogonalEdgeStyle;rounded=0;orthogonalLoop=1;jettySize=auto;html=1;exitX=0.5;exitY=1;exitDx=0;exitDy=0;entryX=0.5;entryY=0;entryDx=0;entryDy=0;flowAnimation=1;strokeColor=#dd6b20;strokeWidth=2;&quot; edge=&quot;1&quot; parent=&quot;1&quot; source=&quot;api-gateway&quot; target=&quot;user-service&quot;&gt;&#10;                    &lt;mxGeometry relative=&quot;1&quot; as=&quot;geometry&quot;/&gt;&#10;                &lt;/mxCell&gt;&#10;                &#10;                &lt;mxCell id=&quot;edge5&quot; style=&quot;edgeStyle=orthogonalEdgeStyle;rounded=0;orthogonalLoop=1;jettySize=auto;html=1;exitX=0.5;exitY=1;exitDx=0;exitDy=0;entryX=0.5;entryY=0;entryDx=0;entryDy=0;flowAnimation=1;strokeColor=#dd6b20;strokeWidth=2;&quot; edge=&quot;1&quot; parent=&quot;1&quot; source=&quot;api-gateway&quot; target=&quot;order-service&quot;&gt;&#10;                    &lt;mxGeometry relative=&quot;1&quot; as=&quot;geometry&quot;/&gt;&#10;                &lt;/mxCell&gt;&#10;                &#10;                &lt;mxCell id=&quot;edge6&quot; style=&quot;edgeStyle=orthogonalEdgeStyle;rounded=0;orthogonalLoop=1;jettySize=auto;html=1;exitX=0.5;exitY=1;exitDx=0;exitDy=0;entryX=0.5;entryY=0;entryDx=0;entryDy=0;flowAnimation=1;strokeColor=#dd6b20;strokeWidth=2;&quot; edge=&quot;1&quot; parent=&quot;1&quot; source=&quot;api-gateway&quot; target=&quot;product-service&quot;&gt;&#10;                    &lt;mxGeometry relative=&quot;1&quot; as=&quot;geometry&quot;/&gt;&#10;                &lt;/mxCell&gt;&#10;                &#10;                &lt;!-- 业务服务间调用 --&gt;&#10;                &lt;mxCell id=&quot;edge7&quot; style=&quot;edgeStyle=orthogonalEdgeStyle;rounded=0;orthogonalLoop=1;jettySize=auto;html=1;exitX=1;exitY=0.5;exitDx=0;exitDy=0;entryX=0;entryY=0.5;entryDx=0;entryDy=0;flowAnimation=1;strokeColor=#38a169;strokeWidth=2;&quot; edge=&quot;1&quot; parent=&quot;1&quot; source=&quot;user-service&quot; target=&quot;order-service&quot;&gt;&#10;                    &lt;mxGeometry relative=&quot;1&quot; as=&quot;geometry&quot;/&gt;&#10;                &lt;/mxCell&gt;&#10;                &#10;                &lt;mxCell id=&quot;edge8&quot; style=&quot;edgeStyle=orthogonalEdgeStyle;rounded=0;orthogonalLoop=1;jettySize=auto;html=1;exitX=1;exitY=0.5;exitDx=0;exitDy=0;entryX=0;entryY=0.5;entryDx=0;entryDy=0;flowAnimation=1;strokeColor=#38a169;strokeWidth=2;&quot; edge=&quot;1&quot; parent=&quot;1&quot; source=&quot;order-service&quot; target=&quot;payment-service&quot;&gt;&#10;                    &lt;mxGeometry relative=&quot;1&quot; as=&quot;geometry&quot;/&gt;&#10;                &lt;/mxCell&gt;&#10;                &#10;                &lt;mxCell id=&quot;edge9&quot; style=&quot;edgeStyle=orthogonalEdgeStyle;rounded=0;orthogonalLoop=1;jettySize=auto;html=1;exitX=1;exitY=0.5;exitDx=0;exitDy=0;entryX=0;entryY=0.5;entryDx=0;entryDy=0;flowAnimation=1;strokeColor=#38a169;strokeWidth=2;&quot; edge=&quot;1&quot; parent=&quot;1&quot; source=&quot;product-service&quot; target=&quot;search-service&quot;&gt;&#10;                    &lt;mxGeometry relative=&quot;1&quot; as=&quot;geometry&quot;/&gt;&#10;                &lt;/mxCell&gt;&#10;                &#10;                &lt;!-- 业务服务到基础服务 --&gt;&#10;                &lt;mxCell id=&quot;edge10&quot; style=&quot;edgeStyle=orthogonalEdgeStyle;rounded=0;orthogonalLoop=1;jettySize=auto;html=1;exitX=0.5;exitY=1;exitDx=0;exitDy=0;entryX=0.5;entryY=0;entryDx=0;entryDy=0;flowAnimation=1;strokeColor=#805ad5;strokeWidth=2;&quot; edge=&quot;1&quot; parent=&quot;1&quot; source=&quot;user-service&quot; target=&quot;auth-service&quot;&gt;&#10;                    &lt;mxGeometry relative=&quot;1&quot; as=&quot;geometry&quot;/&gt;&#10;                &lt;/mxCell&gt;&#10;                &#10;                &lt;mxCell id=&quot;edge11&quot; style=&quot;edgeStyle=orthogonalEdgeStyle;rounded=0;orthogonalLoop=1;jettySize=auto;html=1;exitX=0.5;exitY=1;exitDx=0;exitDy=0;entryX=0.5;entryY=0;entryDx=0;entryDy=0;flowAnimation=1;strokeColor=#805ad5;strokeWidth=2;&quot; edge=&quot;1&quot; parent=&quot;1&quot; source=&quot;order-service&quot; target=&quot;monitor-service&quot;&gt;&#10;                    &lt;mxGeometry relative=&quot;1&quot; as=&quot;geometry&quot;/&gt;&#10;                &lt;/mxCell&gt;&#10;                &#10;                &lt;!-- 业务服务到数据层 --&gt;&#10;                &lt;mxCell id=&quot;edge12&quot; style=&quot;edgeStyle=orthogonalEdgeStyle;rounded=0;orthogonalLoop=1;jettySize=auto;html=1;exitX=0.5;exitY=1;exitDx=0;exitDy=0;entryX=0.5;entryY=0;entryDx=0;entryDy=0;flowAnimation=1;strokeColor=#3182ce;strokeWidth=2;&quot; edge=&quot;1&quot; parent=&quot;1&quot; source=&quot;user-service&quot; target=&quot;mysql&quot;&gt;&#10;                    &lt;mxGeometry relative=&quot;1&quot; as=&quot;geometry&quot;/&gt;&#10;                &lt;/mxCell&gt;&#10;                &#10;                &lt;mxCell id=&quot;edge13&quot; style=&quot;edgeStyle=orthogonalEdgeStyle;rounded=0;orthogonalLoop=1;jettySize=auto;html=1;exitX=0.5;exitY=1;exitDx=0;exitDy=0;entryX=0.5;entryY=0;entryDx=0;entryDy=0;flowAnimation=1;strokeColor=#e53e3e;strokeWidth=2;&quot; edge=&quot;1&quot; parent=&quot;1&quot; source=&quot;user-service&quot; target=&quot;redis&quot;&gt;&#10;                    &lt;mxGeometry relative=&quot;1&quot; as=&quot;geometry&quot;/&gt;&#10;                &lt;/mxCell&gt;&#10;                &#10;                &lt;mxCell id=&quot;edge14&quot; style=&quot;edgeStyle=orthogonalEdgeStyle;rounded=0;orthogonalLoop=1;jettySize=auto;html=1;exitX=0.5;exitY=1;exitDx=0;exitDy=0;entryX=0.5;entryY=0;entryDx=0;entryDy=0;flowAnimation=1;strokeColor=#3182ce;strokeWidth=2;&quot; edge=&quot;1&quot; parent=&quot;1&quot; source=&quot;order-service&quot; target=&quot;mysql&quot;&gt;&#10;                    &lt;mxGeometry relative=&quot;1&quot; as=&quot;geometry&quot;/&gt;&#10;                &lt;/mxCell&gt;&#10;                &#10;                &lt;mxCell id=&quot;edge15&quot; style=&quot;edgeStyle=orthogonalEdgeStyle;rounded=0;orthogonalLoop=1;jettySize=auto;html=1;exitX=0.5;exitY=1;exitDx=0;exitDy=0;entryX=0.5;entryY=0;entryDx=0;entryDy=0;flowAnimation=1;strokeColor=#dd6b20;strokeWidth=2;&quot; edge=&quot;1&quot; parent=&quot;1&quot; source=&quot;order-service&quot; target=&quot;rabbitmq&quot;&gt;&#10;                    &lt;mxGeometry relative=&quot;1&quot; as=&quot;geometry&quot;/&gt;&#10;                &lt;/mxCell&gt;&#10;                &#10;                &lt;mxCell id=&quot;edge16&quot; style=&quot;edgeStyle=orthogonalEdgeStyle;rounded=0;orthogonalLoop=1;jettySize=auto;html=1;exitX=0.5;exitY=1;exitDx=0;exitDy=0;entryX=0.5;entryY=0;entryDx=0;entryDy=0;flowAnimation=1;strokeColor=#d69e2e;strokeWidth=2;&quot; edge=&quot;1&quot; parent=&quot;1&quot; source=&quot;search-service&quot; target=&quot;elasticsearch&quot;&gt;&#10;                    &lt;mxGeometry relative=&quot;1&quot; as=&quot;geometry&quot;/&gt;&#10;                &lt;/mxCell&gt;&#10;                &#10;                &lt;!-- 基础设施层连接 --&gt;&#10;                &lt;mxCell id=&quot;edge17&quot; style=&quot;edgeStyle=orthogonalEdgeStyle;rounded=0;orthogonalLoop=1;jettySize=auto;html=1;exitX=0.5;exitY=1;exitDx=0;exitDy=0;entryX=0.5;entryY=0;entryDx=0;entryDy=0;flowAnimation=1;strokeColor=#4a5568;strokeWidth=2;&quot; edge=&quot;1&quot; parent=&quot;1&quot; source=&quot;mysql&quot; target=&quot;docker&quot;&gt;&#10;                    &lt;mxGeometry relative=&quot;1&quot; as=&quot;geometry&quot;/&gt;&#10;                &lt;/mxCell&gt;&#10;                &#10;                &lt;mxCell id=&quot;edge18&quot; style=&quot;edgeStyle=orthogonalEdgeStyle;rounded=0;orthogonalLoop=1;jettySize=auto;html=1;exitX=0.5;exitY=1;exitDx=0;exitDy=0;entryX=0.5;entryY=0;entryDx=0;entryDy=0;flowAnimation=1;strokeColor=#4a5568;strokeWidth=2;&quot; edge=&quot;1&quot; parent=&quot;1&quot; source=&quot;redis&quot; target=&quot;kubernetes&quot;&gt;&#10;                    &lt;mxGeometry relative=&quot;1&quot; as=&quot;geometry&quot;/&gt;&#10;                &lt;/mxCell&gt;&#10;                &#10;                &lt;!-- 调用说明标签 --&gt;&#10;                &lt;mxCell id=&quot;call-label1&quot; value=&quot;HTTP/HTTPS&amp;#10;RESTful API&quot; style=&quot;text;html=1;strokeColor=none;fillColor=#805ad5;align=center;verticalAlign=middle;whiteSpace=wrap;rounded=1;fontSize=10;fontColor=#ffffff;&quot; vertex=&quot;1&quot; parent=&quot;1&quot;&gt;&#10;                    &lt;mxGeometry x=&quot;150&quot; y=&quot;200&quot; width=&quot;100&quot; height=&quot;40&quot; as=&quot;geometry&quot;/&gt;&#10;                &lt;/mxCell&gt;&#10;                &#10;                &lt;mxCell id=&quot;call-label2&quot; value=&quot;服务间调用&amp;#10;RPC/HTTP&quot; style=&quot;text;html=1;strokeColor=none;fillColor=#38a169;align=center;verticalAlign=middle;whiteSpace=wrap;rounded=1;fontSize=10;fontColor=#ffffff;&quot; vertex=&quot;1&quot; parent=&quot;1&quot;&gt;&#10;                    &lt;mxGeometry x=&quot;350&quot; y=&quot;620&quot; width=&quot;100&quot; height=&quot;40&quot; as=&quot;geometry&quot;/&gt;&#10;                &lt;/mxCell&gt;&#10;                &#10;                &lt;mxCell id=&quot;call-label3&quot; value=&quot;数据访问&amp;#10;JDBC/ORM&quot; style=&quot;text;html=1;strokeColor=none;fillColor=#3182ce;align=center;verticalAlign=middle;whiteSpace=wrap;rounded=1;fontSize=10;fontColor=#ffffff;&quot; vertex=&quot;1&quot; parent=&quot;1&quot;&gt;&#10;                    &lt;mxGeometry x=&quot;150&quot; y=&quot;820&quot; width=&quot;100&quot; height=&quot;40&quot; as=&quot;geometry&quot;/&gt;&#10;                &lt;/mxCell&gt;&#10;                &#10;                &lt;mxCell id=&quot;call-label4&quot; value=&quot;消息传递&amp;#10;AMQP/Kafka&quot; style=&quot;text;html=1;strokeColor=none;fillColor=#dd6b20;align=center;verticalAlign=middle;whiteSpace=wrap;rounded=1;fontSize=10;fontColor=#ffffff;&quot; vertex=&quot;1&quot; parent=&quot;1&quot;&gt;&#10;                    &lt;mxGeometry x=&quot;650&quot; y=&quot;820&quot; width=&quot;100&quot; height=&quot;40&quot; as=&quot;geometry&quot;/&gt;&#10;                &lt;/mxCell&gt;&#10;                &#10;                &lt;mxCell id=&quot;call-label5&quot; value=&quot;容器编排&amp;#10;K8s/Docker&quot; style=&quot;text;html=1;strokeColor=none;fillColor=#4a5568;align=center;verticalAlign=middle;whiteSpace=wrap;rounded=1;fontSize=10;fontColor=#ffffff;&quot; vertex=&quot;1&quot; parent=&quot;1&quot;&gt;&#10;                    &lt;mxGeometry x=&quot;150&quot; y=&quot;1020&quot; width=&quot;100&quot; height=&quot;40&quot; as=&quot;geometry&quot;/&gt;&#10;                &lt;/mxCell&gt;&#10;                &#10;            &lt;/root&gt;&#10;        &lt;/mxGr" style="text;whiteSpace=wrap;html=1;" parent="1" vertex="1">
                    <mxGeometry x="1320" y="1380" width="100" height="4240" as="geometry"/>
                </mxCell>
            </root>
        </mxGraphModel>
    </diagram>
</mxfile>